<?xml version="1.0" encoding="utf-8"?>
<!-- Generator: Adobe Illustrator 24.3.0, SVG Export Plug-In . SVG Version: 6.00 Build 0)  -->
<svg version="1.1" id="Layer_1" xmlns="http://www.w3.org/2000/svg" xmlns:xlink="http://www.w3.org/1999/xlink" x="0px" y="0px"
	 viewBox="0 0 250 250" style="enable-background:new 0 0 250 250;" xml:space="preserve">
<style type="text/css">
	.st0{fill:#06314A;}
	.st1{fill:#E41E26;}
	.st2{fill:#FCFDFD;}
</style>
<g>
	<path class="st1" d="M68.62,50.33c14.43-10.69,30.25-19.07,46.2-27.13c8.23-4.16,16.77-2.85,24.7,1.69
		c15.89,9.1,31.73,18.28,47.58,27.45c9.56,5.53,14.37,13.92,14.52,24.88c0.16,11.97-0.15,23.95,0.18,35.91
		c0.21,7.48-1.89,8.28-8.17,4.59c-22.86-13.46-45.92-26.59-68.97-39.73c-3.53-2.01-7.41-3.41-11.13-5.09
		C98.05,66.38,83.5,58.03,68.62,50.33z"/>
	<path class="st1" d="M181.51,199.54c-14.8,10.87-30.96,19.48-47.34,27.58c-6.97,3.45-14.72,2.71-21.65-1.18
		c-17.28-9.71-34.63-19.34-51.62-29.55c-8.64-5.19-12.34-13.88-12.51-23.82c-0.21-11.98,0.2-23.98-0.18-35.96
		c-0.26-8.09,2.68-7.78,8.38-4.43c22.59,13.27,45.3,26.32,67.96,39.46c3.88,2.25,7.63,4.77,12.23,5.36
		C152.24,183.41,166.38,192.46,181.51,199.54z"/>
	<path class="st2" d="M68.62,50.33c17.08,3.33,31.21,12.52,44.92,22.56c-9.37,2.67-11.08,10.37-11.36,18.39
		c-0.4,11.54-0.1,23.1-0.1,37.75c-16.58-11.78-35.59-16.43-47.05-32.37C42.06,78.63,48.07,59.25,68.62,50.33z"/>
	<path class="st2" d="M181.51,199.54c-17.25-2.89-31.08-12.54-44.74-22.55c8.81-2.69,10.56-10.07,10.85-17.67
		c0.45-11.89,0.12-23.8,0.12-38.33c15.58,10.04,31.61,15.64,43.53,27.55C208.62,165.87,203.86,189.09,181.51,199.54z"/>
</g>
</svg>
